<svg xmlns="http://www.w3.org/2000/svg" version="1.1" xmlns:xlink="http://www.w3.org/1999/xlink" xmlns:svgjs="http://svgjs.com/svgjs" width="1440" height="560" preserveAspectRatio="none" viewBox="0 0 1440 560">
    <g mask="url(&quot;#SvgjsMask1007&quot;)" fill="none">
        <path d="M1224 425L1223 238" stroke-width="10" stroke="url(#SvgjsLinearGradient1008)" stroke-linecap="round" class="Down"></path>
        <path d="M1215 253L1214 33" stroke-width="6" stroke="url(#SvgjsLinearGradient1008)" stroke-linecap="round" class="Down"></path>
        <path d="M859 111L858 286" stroke-width="6" stroke="url(#SvgjsLinearGradient1008)" stroke-linecap="round" class="Down"></path>
        <path d="M1176 188L1175 -93" stroke-width="10" stroke="url(#SvgjsLinearGradient1009)" stroke-linecap="round" class="Up"></path>
        <path d="M1011 255L1010 3" stroke-width="8" stroke="url(#SvgjsLinearGradient1009)" stroke-linecap="round" class="Up"></path>
        <path d="M859 178L858 -63" stroke-width="8" stroke="url(#SvgjsLinearGradient1008)" stroke-linecap="round" class="Down"></path>
        <path d="M1393 99L1392 -225" stroke-width="10" stroke="url(#SvgjsLinearGradient1008)" stroke-linecap="round" class="Down"></path>
        <path d="M1133 472L1132 734" stroke-width="8" stroke="url(#SvgjsLinearGradient1009)" stroke-linecap="round" class="Up"></path>
        <path d="M103 148L102 -62" stroke-width="8" stroke="url(#SvgjsLinearGradient1008)" stroke-linecap="round" class="Down"></path>
        <path d="M727 254L726 -88" stroke-width="10" stroke="url(#SvgjsLinearGradient1008)" stroke-linecap="round" class="Down"></path>
        <path d="M737 492L736 879" stroke-width="6" stroke="url(#SvgjsLinearGradient1008)" stroke-linecap="round" class="Down"></path>
        <path d="M744 486L743 267" stroke-width="6" stroke="url(#SvgjsLinearGradient1009)" stroke-linecap="round" class="Up"></path>
        <path d="M903 449L902 709" stroke-width="10" stroke="url(#SvgjsLinearGradient1008)" stroke-linecap="round" class="Down"></path>
        <path d="M1287 160L1286 -190" stroke-width="10" stroke="url(#SvgjsLinearGradient1008)" stroke-linecap="round" class="Down"></path>
        <path d="M1095 30L1094 -237" stroke-width="8" stroke="url(#SvgjsLinearGradient1009)" stroke-linecap="round" class="Up"></path>
        <path d="M564 443L563 757" stroke-width="10" stroke="url(#SvgjsLinearGradient1009)" stroke-linecap="round" class="Up"></path>
        <path d="M460 381L459 28" stroke-width="8" stroke="url(#SvgjsLinearGradient1009)" stroke-linecap="round" class="Up"></path>
        <path d="M914 101L913 245" stroke-width="10" stroke="url(#SvgjsLinearGradient1009)" stroke-linecap="round" class="Up"></path>
        <path d="M1304 57L1303 347" stroke-width="8" stroke="url(#SvgjsLinearGradient1009)" stroke-linecap="round" class="Up"></path>
        <path d="M1362 16L1361 158" stroke-width="6" stroke="url(#SvgjsLinearGradient1009)" stroke-linecap="round" class="Up"></path>
        <path d="M315 9L314 -334" stroke-width="6" stroke="url(#SvgjsLinearGradient1008)" stroke-linecap="round" class="Down"></path>
        <path d="M1012 41L1011 -123" stroke-width="10" stroke="url(#SvgjsLinearGradient1008)" stroke-linecap="round" class="Down"></path>
        <path d="M411 191L410 515" stroke-width="6" stroke="url(#SvgjsLinearGradient1008)" stroke-linecap="round" class="Down"></path>
        <path d="M635 188L634 -180" stroke-width="8" stroke="url(#SvgjsLinearGradient1009)" stroke-linecap="round" class="Up"></path>
        <path d="M1056 341L1055 545" stroke-width="10" stroke="url(#SvgjsLinearGradient1008)" stroke-linecap="round" class="Down"></path>
        <path d="M674 112L673 409" stroke-width="10" stroke="url(#SvgjsLinearGradient1008)" stroke-linecap="round" class="Down"></path>
        <path d="M612 514L611 103" stroke-width="6" stroke="url(#SvgjsLinearGradient1008)" stroke-linecap="round" class="Down"></path>
        <path d="M559 53L558 339" stroke-width="8" stroke="url(#SvgjsLinearGradient1008)" stroke-linecap="round" class="Down"></path>
        <path d="M626 45L625 -272" stroke-width="6" stroke="url(#SvgjsLinearGradient1009)" stroke-linecap="round" class="Up"></path>
        <path d="M1290 394L1289 123" stroke-width="10" stroke="url(#SvgjsLinearGradient1008)" stroke-linecap="round" class="Down"></path>
        <path d="M1431 280L1430 40" stroke-width="8" stroke="url(#SvgjsLinearGradient1008)" stroke-linecap="round" class="Down"></path>
        <path d="M945 229L944 -37" stroke-width="10" stroke="url(#SvgjsLinearGradient1008)" stroke-linecap="round" class="Down"></path>
        <path d="M425 56L424 437" stroke-width="8" stroke="url(#SvgjsLinearGradient1008)" stroke-linecap="round" class="Down"></path>
        <path d="M1138 16L1137 -247" stroke-width="10" stroke="url(#SvgjsLinearGradient1009)" stroke-linecap="round" class="Up"></path>
        <path d="M620 155L619 -18" stroke-width="6" stroke="url(#SvgjsLinearGradient1008)" stroke-linecap="round" class="Down"></path>
        <path d="M901 435L900 789" stroke-width="10" stroke="url(#SvgjsLinearGradient1009)" stroke-linecap="round" class="Up"></path>
    </g>
    <defs>
        <mask id="SvgjsMask1007">
            <rect width="1440" height="560" fill="#ffffff"></rect>
        </mask>
        <linearGradient x1="0%" y1="0%" x2="0%" y2="100%" id="SvgjsLinearGradient1008">
            <stop stop-color="rgba(101, 51, 144, 0)" offset="0"></stop>
            <stop stop-color="rgba(101, 51, 144, 1)" offset="1"></stop>
        </linearGradient>
        <linearGradient x1="0%" y1="100%" x2="0%" y2="0%" id="SvgjsLinearGradient1009">
            <stop stop-color="rgba(101, 51, 144, 0)" offset="0"></stop>
            <stop stop-color="rgba(101, 51, 144, 1)" offset="1"></stop>
        </linearGradient>
    </defs>
</svg>