<?xml version="1.0" encoding="utf-8"?>
<!-- Generator: Adobe Illustrator 24.3.0, SVG Export Plug-In . SVG Version: 6.00 Build 0)  -->
<svg version="1.1" id="Layer_1" xmlns="http://www.w3.org/2000/svg" xmlns:xlink="http://www.w3.org/1999/xlink" x="0px" y="0px"
	 viewBox="0 0 1417.32 1417.32" style="enable-background:new 0 0 1417.32 1417.32;" xml:space="preserve">
<style type="text/css">
	.st0{fill:url(#SVGID_1_);}
	.st1{fill:url(#SVGID_2_);}
	.st2{fill:url(#SVGID_3_);}
	.st3{fill:url(#SVGID_4_);}
	.st4{fill:url(#SVGID_5_);}
	.st5{fill:url(#SVGID_6_);}
	.st6{fill:url(#SVGID_7_);}
	.st7{fill:url(#SVGID_8_);}
	.st8{fill:url(#SVGID_9_);}
	.st9{fill:url(#SVGID_10_);}
	.st10{fill:#6B1183;}
	.st11{fill:url(#SVGID_11_);}
</style>
<g>
	<g>
		<linearGradient id="SVGID_1_" gradientUnits="userSpaceOnUse" x1="925.3923" y1="717.3952" x2="1200.6775" y2="538.3575">
			<stop  offset="0" style="stop-color:#82449A"/>
			<stop  offset="1" style="stop-color:#3E3489"/>
		</linearGradient>
		<path class="st0" d="M1180.34,638.12c-5.28,80.4-94.09,89.11-94.09,89.11s-120.44,7.78-226.68-85.39
			c-0.01-0.01-0.01-0.01-0.02-0.02c-2.42-2.88-4.92-5.35-7.38-6.66c63.15,33.44,129.09,67.5,200.49,70.35
			c36.86,1.46,81.97-6.73,103.4-40.22c19.69-30.75,10.35-74.34-15.52-100.11c-13.89-13.83-30.42-22.63-48.27-27.89
			C1097.62,538.53,1185.45,560.17,1180.34,638.12z"/>
		<linearGradient id="SVGID_2_" gradientUnits="userSpaceOnUse" x1="1163.6963" y1="559.0034" x2="902.2988" y2="775.5857">
			<stop  offset="0" style="stop-color:#82449A"/>
			<stop  offset="1" style="stop-color:#3E3489"/>
		</linearGradient>
		<path class="st1" d="M1195.58,694.6c-11.59,17.55-27.83,32.26-47.03,42.98c-26.37,14.72-58.35,21.91-91.62,18.6
			c-42.04-4.18-80.97-20.57-116.26-43.22c-17.18-11.03-33.5-23.4-48.77-36.96c-7.37-6.55-14.49-13.37-21.35-20.45
			c-3.23-3.35-7.02-9.04-10.98-13.71c106.24,93.17,226.68,85.39,226.68,85.39s88.81-8.71,94.09-89.11
			c5.11-77.95-82.72-99.59-88.07-100.83c-0.07-0.02-0.13-0.03-0.17-0.05C1095.67,537.7,1221.24,554.83,1195.58,694.6z"/>
		<linearGradient id="SVGID_3_" gradientUnits="userSpaceOnUse" x1="1009.6862" y1="386.5549" x2="505.5038" y2="951.6778">
			<stop  offset="0.534" style="stop-color:#82449A"/>
			<stop  offset="0.7964" style="stop-color:#3E3489"/>
		</linearGradient>
		<path class="st2" d="M1085.99,535.6c-34.41-8.42-73.02-4.7-106.78,1.05c-65.17,11.11-129.99,43.63-183.18,81.99
			c-55.01,39.68-102.48,88.79-147.78,138.88c-80.14,88.61-189.81,197.26-319.6,157.81c36.45,11.08,147.36,19.01,330.95-188.1
			C883.2,474.99,1077.93,533.05,1085.99,535.6z"/>
		<linearGradient id="SVGID_4_" gradientUnits="userSpaceOnUse" x1="1008.1316" y1="363.6682" x2="283.9452" y2="1071.061">
			<stop  offset="0" style="stop-color:#3E3489"/>
			<stop  offset="1" style="stop-color:#82449A"/>
		</linearGradient>
		<path class="st3" d="M1195.58,694.6c25.66-139.77-99.91-156.9-103.48-157.36c-0.05,0-0.08-0.01-0.08-0.01
			c-1.91-0.57-3.84-1.08-5.77-1.55c0,0-0.05-0.02-0.15-0.05c-0.03-0.01-0.07-0.02-0.11-0.03c-8.06-2.55-202.79-60.61-426.39,191.63
			c-183.59,207.11-294.5,199.18-330.95,188.1c-0.02-0.01-0.03-0.02-0.06-0.02c-4.48-1.65-8.9-3.51-13.24-5.55
			c-0.03-0.02-0.05-0.03-0.05-0.03c-10.2-4.81-20.01-10.69-29.25-17.66C208.31,833.48,181.94,720.8,219.11,632
			c3.22-7.7,6.91-15.19,11.04-22.43c0,0-15.17,345.9,235.13,198.97c27.5-14.87,53.23-36.2,75.33-55.2
			c38.48-33.04,77.03-65.98,117.4-96.7c113.02-85.98,240.33-164.4,386.63-162.96c60.99,0.6,126.8,20.07,155.65,78.58
			C1222.85,618.02,1217.52,661.4,1195.58,694.6z"/>
		<linearGradient id="SVGID_5_" gradientUnits="userSpaceOnUse" x1="462.9377" y1="497.5789" x2="311.9853" y2="840.0148">
			<stop  offset="0" style="stop-color:#82449A"/>
			<stop  offset="1" style="stop-color:#3E3489"/>
		</linearGradient>
		<path class="st4" d="M597.96,602.83c-0.13-0.22-0.28-0.44-0.41-0.68c-12.72-20.02-26.07-39.56-43.98-55.36
			c-16.34-14.39-35.49-25.8-55.64-33.55c-37.15-14.28-78.49-17.42-117.14-10.82c-62.8,10.74-119.19,51.83-150.64,107.15
			c0,0-15.17,345.9,235.13,198.97c-39.9,21.58-83.51,29.57-125.17-2.87c-6.6-5.14-12.45-10.95-17.55-17.31
			c-1.52-1.9-1.09-4.69,0.97-5.99c33.06-20.78,66.14-41.55,99.2-62.34c47.1-29.55,92.67-61.51,140.26-90.26l0.27-0.15l6.89-4.37
			l26.59-16.82C598.63,607.24,599.18,604.72,597.96,602.83z M484,612l-31.27,20.13l-81.06,51.28l-68.23,42.85
			c-2.56,1.61-5.93-0.08-6.18-3.1c-1.58-19.44,1.22-39.31,8.49-57.51c17.21-43.03,59.88-74.99,106.1-78.48
			c25.13-1.89,50.62,4.85,72.09,17.99C486.47,606.71,486.5,610.39,484,612z"/>
		<linearGradient id="SVGID_6_" gradientUnits="userSpaceOnUse" x1="462.9377" y1="497.5789" x2="311.9853" y2="840.0148">
			<stop  offset="0" style="stop-color:#82449A;stop-opacity:0"/>
			<stop  offset="1" style="stop-color:#3E3489"/>
		</linearGradient>
		<path class="st5" d="M597.96,602.83c-0.13-0.22-0.28-0.44-0.41-0.68c-12.72-20.02-26.07-39.56-43.98-55.36
			c-16.34-14.39-35.49-25.8-55.64-33.55c-37.15-14.28-78.49-17.42-117.14-10.82c-62.8,10.74-119.19,51.83-150.64,107.15
			c0,0-15.17,345.9,235.13,198.97c-39.9,21.58-83.51,29.57-125.17-2.87c-6.6-5.14-12.45-10.95-17.55-17.31
			c-1.52-1.9-1.09-4.69,0.97-5.99c33.06-20.78,66.14-41.55,99.2-62.34c47.1-29.55,92.67-61.51,140.26-90.26l0.27-0.15l6.89-4.37
			l26.59-16.82C598.63,607.24,599.18,604.72,597.96,602.83z M484,612l-31.27,20.13l-81.06,51.28l-68.23,42.85
			c-2.56,1.61-5.93-0.08-6.18-3.1c-1.58-19.44,1.22-39.31,8.49-57.51c17.21-43.03,59.88-74.99,106.1-78.48
			c25.13-1.89,50.62,4.85,72.09,17.99C486.47,606.71,486.5,610.39,484,612z"/>
		<linearGradient id="SVGID_7_" gradientUnits="userSpaceOnUse" x1="1008.1316" y1="363.6682" x2="283.9452" y2="1071.061">
			<stop  offset="0" style="stop-color:#3E3489"/>
			<stop  offset="1" style="stop-color:#82449A;stop-opacity:0"/>
		</linearGradient>
		<path class="st6" d="M1195.58,694.6c25.66-139.77-99.91-156.9-103.48-157.36c-0.05,0-0.08-0.01-0.08-0.01
			c-1.91-0.57-3.84-1.08-5.77-1.55c0,0-0.05-0.02-0.15-0.05c-0.03-0.01-0.07-0.02-0.11-0.03c-8.06-2.55-202.79-60.61-426.39,191.63
			c-183.59,207.11-294.5,199.18-330.95,188.1c-0.02-0.01-0.03-0.02-0.06-0.02c-4.48-1.65-8.9-3.51-13.24-5.55
			c-0.03-0.02-0.05-0.03-0.05-0.03c-10.2-4.81-20.01-10.69-29.25-17.66C208.31,833.48,181.94,720.8,219.11,632
			c3.22-7.7,6.91-15.19,11.04-22.43c0,0-15.17,345.9,235.13,198.97c27.5-14.87,53.23-36.2,75.33-55.2
			c38.48-33.04,77.03-65.98,117.4-96.7c113.02-85.98,240.33-164.4,386.63-162.96c60.99,0.6,126.8,20.07,155.65,78.58
			C1222.85,618.02,1217.52,661.4,1195.58,694.6z"/>
		<linearGradient id="SVGID_8_" gradientUnits="userSpaceOnUse" x1="1009.6862" y1="386.5549" x2="505.5038" y2="951.6778">
			<stop  offset="0.534" style="stop-color:#82449A;stop-opacity:0"/>
			<stop  offset="0.7964" style="stop-color:#3E3489"/>
		</linearGradient>
		<path class="st7" d="M1085.99,535.6c-34.41-8.42-73.02-4.7-106.78,1.05c-65.17,11.11-129.99,43.63-183.18,81.99
			c-55.01,39.68-102.48,88.79-147.78,138.88c-80.14,88.61-189.81,197.26-319.6,157.81c36.45,11.08,147.36,19.01,330.95-188.1
			C883.2,474.99,1077.93,533.05,1085.99,535.6z"/>
		<linearGradient id="SVGID_9_" gradientUnits="userSpaceOnUse" x1="925.3923" y1="717.3952" x2="1200.6775" y2="538.3575">
			<stop  offset="0" style="stop-color:#82449A;stop-opacity:0"/>
			<stop  offset="1" style="stop-color:#3E3489"/>
		</linearGradient>
		<path class="st8" d="M1180.34,638.12c-5.28,80.4-94.09,89.11-94.09,89.11s-120.44,7.78-226.68-85.39
			c-0.01-0.01-0.01-0.01-0.02-0.02c-2.42-2.88-4.92-5.35-7.38-6.66c63.15,33.44,129.09,67.5,200.49,70.35
			c36.86,1.46,81.97-6.73,103.4-40.22c19.69-30.75,10.35-74.34-15.52-100.11c-13.89-13.83-30.42-22.63-48.27-27.89
			C1097.62,538.53,1185.45,560.17,1180.34,638.12z"/>
		<linearGradient id="SVGID_10_" gradientUnits="userSpaceOnUse" x1="1163.6963" y1="559.0034" x2="902.2988" y2="775.5857">
			<stop  offset="0" style="stop-color:#82449A;stop-opacity:0"/>
			<stop  offset="1" style="stop-color:#3E3489"/>
		</linearGradient>
		<path class="st9" d="M1195.58,694.6c-11.59,17.55-27.83,32.26-47.03,42.98c-26.37,14.72-58.35,21.91-91.62,18.6
			c-42.04-4.18-80.97-20.57-116.26-43.22c-17.18-11.03-33.5-23.4-48.77-36.96c-7.37-6.55-14.49-13.37-21.35-20.45
			c-3.23-3.35-7.02-9.04-10.98-13.71c106.24,93.17,226.68,85.39,226.68,85.39s88.81-8.71,94.09-89.11
			c5.11-77.95-82.72-99.59-88.07-100.83c-0.07-0.02-0.13-0.03-0.17-0.05C1095.67,537.7,1221.24,554.83,1195.58,694.6z"/>
	</g>
	<g>
		<path class="st10" d="M1012.34,828.89c0-8.73-7.37-13.38-20.75-13.38c-15.64,0-26.37,7.37-29.09,19.84h16.61
			c1.68-4.65,6.08-5.75,10.08-5.75c3.81,0,5.62,1.36,5.62,3.49c0,8.79-36.46,12.28-42.14,29.99l-2.59,8.14h49.32l4.4-13.57H975.5
			C986.49,850.61,1012.34,845.96,1012.34,828.89z"/>
		<path class="st10" d="M1046.73,815.51c-16.87,0-29.02,9.12-34.71,26.7c-6.4,19.46,0.91,30.44,19.2,30.44
			c16.87,0,29.09-9.11,34.71-26.69C1072.26,826.44,1065.02,815.51,1046.73,815.51z M1050.09,842.47
			c-2.97,10.08-8.53,15.77-16.03,15.77c-6.46,0-8.73-4.33-6.21-12.54c3.04-10.15,8.53-15.77,16.03-15.77
			C1050.35,829.93,1052.55,834.26,1050.09,842.47z"/>
		<path class="st10" d="M1085.97,857.66c10.99-7.05,36.84-11.7,36.84-28.76c0-8.73-7.37-13.38-20.75-13.38
			c-15.64,0-26.37,7.37-29.09,19.84h16.61c1.68-4.65,6.08-5.75,10.08-5.75c3.81,0,5.62,1.36,5.62,3.49
			c0,8.79-36.46,12.28-42.14,29.99l-2.59,8.14h49.32l4.4-13.57H1085.97z"/>
		<path class="st10" d="M1175.75,828.89c0-8.73-7.37-13.38-20.75-13.38c-15.64,0-26.37,7.37-29.09,19.84h16.61
			c1.68-4.65,6.08-5.75,10.08-5.75c3.81,0,5.62,1.36,5.62,3.49c0,8.79-36.46,12.28-42.14,29.99l-2.59,8.14h49.32l4.4-13.57h-28.31
			C1149.9,850.61,1175.75,845.96,1175.75,828.89z"/>
	</g>
	<linearGradient id="SVGID_11_" gradientUnits="userSpaceOnUse" x1="821.3865" y1="844.8943" x2="929.7595" y2="844.8943">
		<stop  offset="0" style="stop-color:#82449A;stop-opacity:0"/>
		<stop  offset="1" style="stop-color:#3E3489"/>
	</linearGradient>
	<rect x="821.39" y="835.58" class="st11" width="108.37" height="18.62"/>
</g>
</svg>
